<svg version="1.1" xmlns="http://www.w3.org/2000/svg" viewBox="0 0 2660.6332464754796 1435.0683297785072" width="5321.266492950959" height="2870.1366595570144">
  <!-- svg-source:excalidraw -->
  
  <defs>
    <style>
      @font-face {
        font-family: "Virgil";
        src: url("https://excalidraw.com/Virgil.woff2");
      }
      @font-face {
        font-family: "Cascadia";
        src: url("https://excalidraw.com/Cascadia.woff2");
      }
    </style>
  </defs>
  <g stroke-linecap="round" transform="translate(297.37941967840925 376.5488306494706) rotate(0 255.80835823678183 142.67776868680136)"><path d="M-0.35 0.46 C115.84 -0.72, 231.91 0.33, 511.63 -0.34 M-0.21 0.23 C105.94 -0.88, 211.27 -1.32, 511.56 0.17 M511.91 1.43 C509.04 60.85, 510.08 125.09, 512.73 284.58 M512.33 -0.2 C513.5 67.78, 512.99 134.8, 511.01 285.75 M512.35 285.76 C394.98 286.57, 279.27 286.75, 0 284.62 M511.27 285.14 C340.5 287.2, 168.42 287.32, -0.33 285.37 M-0.07 286.72 C-0.23 195.82, 2.27 104.41, 0.23 -0.47 M-0.54 286.1 C-1.62 189.15, -0.96 94.48, -0.75 -0.02" stroke="#000000" stroke-width="1" fill="none"></path></g><g stroke-linecap="round" transform="translate(1155.009217775341 507.32095659658796) rotate(0 747.8120143500693 458.87368659095955)"><path d="M-0.59 -0.63 C455.44 2.84, 912.42 2.08, 1495.35 0.32 M-0.1 0.11 C503.53 -4.99, 1008.06 -5.28, 1495.41 0.15 M1496.29 -0.19 C1493.22 282.49, 1493.06 566.38, 1494.93 918.22 M1495.41 -0.16 C1494.91 190.28, 1494.76 380.5, 1495.87 918 M1495.4 917.03 C1095.11 914.38, 695 914.4, 0.7 918.08 M1495.92 917.41 C1111.95 914.84, 728.3 914.79, -0.2 917.49 M-0.07 917.92 C-1.33 698.76, -0.33 479.57, 0.75 -0.33 M0.22 917.69 C-3.75 716.15, -3.72 514.69, 0.06 -0.35" stroke="#000000" stroke-width="1" fill="none"></path></g><g stroke-linecap="round" transform="translate(294.50112907094274 846.8811640585258) rotate(0 156.98588375369604 142.6777686868013)"><path d="M0.17 0.63 C68.02 1.99, 137.38 2.38, 313.99 0.8 M0.17 0.43 C108.19 0.01, 216.31 -0.43, 314.44 -0.51 M313.1 -1.38 C313.79 102.74, 315.26 208.6, 314.28 284.63 M313.61 0.2 C313.49 60.04, 314.54 120.51, 314.15 285.32 M314.42 285.2 C211.24 285.36, 105.33 287.05, 1.06 285.93 M314.49 285.95 C212.49 286.13, 110.32 285.73, 0.49 285.05 M0.77 284.4 C0.05 178.77, -1.63 69.67, 1.29 -0.08 M-0.29 284.76 C1.62 210.54, 0.83 135.82, 0.51 0.69" stroke="#000000" stroke-width="1" fill="none"></path></g><g stroke-linecap="round" transform="translate(1259.7980025631548 817.5076154902962) rotate(0 104.52680580342246 87.78227242311107)"><path d="M-1.62 0.49 C53.39 2.68, 105.06 2.23, 209.9 -1.35 M-0.12 -0.61 C50.02 0.14, 101.02 -0.85, 208.2 -0.01 M210.61 -0.35 C208.56 38.65, 209.26 80, 208.31 175.44 M209.72 0.93 C207.41 60.29, 206.71 121.06, 209.56 175.97 M208.72 174.76 C147.56 175.87, 87.9 175.78, 1 176.97 M208.22 175.59 C150.59 177.49, 92.59 177.12, -0.77 176.04 M1.24 174.8 C-0.36 111.43, -0.56 45.45, 0.02 0.95 M-0.51 175.96 C-0.45 121.19, -0.76 65.76, 0.19 0.08" stroke="#000000" stroke-width="1" fill="none"></path></g><g transform="translate(1288.8248083665774 855.2898879134071) rotate(0 75.5 50)"><text x="75.5" y="18" font-family="Virgil, Segoe UI Emoji" font-size="20px" fill="#000000" text-anchor="middle" style="white-space: pre;" direction="ltr">Proxy Canister</text><text x="75.5" y="43" font-family="Virgil, Segoe UI Emoji" font-size="20px" fill="#000000" text-anchor="middle" style="white-space: pre;" direction="ltr"></text><text x="75.5" y="68" font-family="Virgil, Segoe UI Emoji" font-size="20px" fill="#000000" text-anchor="middle" style="white-space: pre;" direction="ltr">with JSON RPC</text><text x="75.5" y="93" font-family="Virgil, Segoe UI Emoji" font-size="20px" fill="#000000" text-anchor="middle" style="white-space: pre;" direction="ltr">Interface</text></g><g stroke-linecap="round" transform="translate(1564.1555703552874 748.037600567944) rotate(0 104.52680580342246 87.78227242311107)"><path d="M-1.11 1.49 C66.29 -0.88, 129.31 -0.33, 207.5 -0.88 M209.64 -0.83 C210.19 65.41, 208.25 133.91, 208.09 176.45 M208.15 174.17 C146.66 177.14, 82.75 177.51, 0.09 174.56 M-0.61 175.61 C0.42 106.2, 1.68 39.32, 1.05 -0.61" stroke="#000000" stroke-width="1.5" fill="none" stroke-dasharray="8 9"></path></g><g transform="translate(1592.18237615871 785.8198729910549) rotate(0 76.5 50)"><text x="76.5" y="18" font-family="Virgil, Segoe UI Emoji" font-size="20px" fill="#000000" text-anchor="middle" style="white-space: pre;" direction="ltr">"ckETH"</text><text x="76.5" y="43" font-family="Virgil, Segoe UI Emoji" font-size="20px" fill="#000000" text-anchor="middle" style="white-space: pre;" direction="ltr"></text><text x="76.5" y="68" font-family="Virgil, Segoe UI Emoji" font-size="20px" fill="#000000" text-anchor="middle" style="white-space: pre;" direction="ltr">DIP20/ICRC-1 </text><text x="76.5" y="93" font-family="Virgil, Segoe UI Emoji" font-size="20px" fill="#000000" text-anchor="middle" style="white-space: pre;" direction="ltr">Token Canister</text></g><g stroke-linecap="round" transform="translate(1452.0162053868378 10) rotate(0 255.80835823678183 142.67776868680136)"><path d="M-0.35 0.02 C107.27 0.02, 214.7 0.66, 511.36 0.06 M0.3 0.04 C183.94 0.99, 367 0.81, 511.57 0.07 M511.19 0.6 C510.32 71.4, 508.2 142.54, 510.51 284.21 M510.9 0.38 C509.77 67.43, 508.8 134.3, 510.96 284.91 M511.38 284.88 C323.38 285.18, 135.24 286.11, -0.04 285.39 M511.62 285.05 C312.13 286.38, 113.01 286, -0.04 285.31 M-1.05 286.06 C0.13 220.6, 1.5 159.38, -0.47 0.61 M-0.39 285.84 C1.37 220.25, 1.97 155.75, -0.54 0.39" stroke="#000000" stroke-width="1" fill="none"></path></g><g transform="translate(1593.3245636236195 140.1777686868013) rotate(0 114.5 12.5)"><text x="114.5" y="18" font-family="Virgil, Segoe UI Emoji" font-size="20px" fill="#000000" text-anchor="middle" style="white-space: pre;" direction="ltr">Ethereum RPC Provider</text></g><g transform="translate(396.4870128246388 939.5589327453271) rotate(0 55 37.5)"><text x="55" y="18" font-family="Virgil, Segoe UI Emoji" font-size="20px" fill="#000000" text-anchor="middle" style="white-space: pre;" direction="ltr">MetaMask</text><text x="55" y="43" font-family="Virgil, Segoe UI Emoji" font-size="20px" fill="#000000" text-anchor="middle" style="white-space: pre;" direction="ltr"></text><text x="55" y="68" font-family="Virgil, Segoe UI Emoji" font-size="20px" fill="#000000" text-anchor="middle" style="white-space: pre;" direction="ltr">ETH Config</text></g><g stroke-linecap="round" transform="translate(1978.2812997691094 747.4194742858843) rotate(0 104.52680580342235 87.78227242311107)"><path d="M-0.65 -1.39 C46.93 2.4, 92.72 0.98, 209.74 1.01 M209.08 -0.21 C211.14 65.81, 207.77 133.27, 210.8 177.37 M210.58 176.35 C160.2 174.91, 113.71 173.81, 1.38 175.92 M-1.88 175.39 C-0.11 124.55, 0.37 75.07, 0.17 -1.72" stroke="#000000" stroke-width="1.5" fill="none" stroke-dasharray="8 9"></path></g><g transform="translate(2021.308105572532 797.7017467089953) rotate(0 61.5 37.5)"><text x="61.5" y="18" font-family="Virgil, Segoe UI Emoji" font-size="20px" fill="#000000" text-anchor="middle" style="white-space: pre;" direction="ltr"></text><text x="61.5" y="43" font-family="Virgil, Segoe UI Emoji" font-size="20px" fill="#000000" text-anchor="middle" style="white-space: pre;" direction="ltr">Swap/Minting</text><text x="61.5" y="68" font-family="Virgil, Segoe UI Emoji" font-size="20px" fill="#000000" text-anchor="middle" style="white-space: pre;" direction="ltr">Canister</text></g><g transform="translate(442.1877779151911 506.726599336272) rotate(0 111 12.5)"><text x="111" y="18" font-family="Virgil, Segoe UI Emoji" font-size="20px" fill="#000000" text-anchor="middle" style="white-space: pre;" direction="ltr">Demo Swap Application</text></g><g stroke-linecap="round" transform="translate(1258.57271354088 555.1586616972594) rotate(0 104.52680580342246 87.78227242311107)"><path d="M-0.41 0.86 C75.41 -0.11, 147.72 -2.46, 207.75 -0.99 M209.15 1.6 C209.26 54.45, 208.19 106.27, 209.73 175.18 M210.43 174.7 C161.4 175.19, 113.7 176.16, -1.17 175.79 M0.53 177.27 C2.52 113.12, 0.37 48.65, -0.96 1.66" stroke="#000000" stroke-width="1.5" fill="none" stroke-dasharray="8 9"></path></g><g transform="translate(1290.0995193443025 617.9409341203703) rotate(0 73 25)"><text x="73" y="18" font-family="Virgil, Segoe UI Emoji" font-size="20px" fill="#000000" text-anchor="middle" style="white-space: pre;" direction="ltr">Proxy Canister</text><text x="73" y="43" font-family="Virgil, Segoe UI Emoji" font-size="20px" fill="#000000" text-anchor="middle" style="white-space: pre;" direction="ltr">Manager</text></g><g stroke-linecap="round" transform="translate(422.0204810871336 1046.2903724172847) rotate(0 157.5 142.6777686868013)"><path d="M-0.66 0.86 C65.91 -0.29, 132.69 0.66, 315.62 0.04 M-0.59 -0.55 C117.16 0.29, 232.74 -0.3, 314.92 -0.01 M315.21 1.38 C314.26 94.46, 316.69 187.92, 315.35 286.86 M315.5 -0.75 C316.42 101.48, 316.12 203.83, 315.66 284.7 M315.05 286.33 C193.14 283.95, 71.3 283.45, -0.24 284.84 M314.95 286.05 C206.61 284.87, 97.01 284.38, 0.67 285.74 M-0.13 286.27 C-0.07 201.4, 0.2 117.88, -1.2 0.54 M0.59 285.15 C-1.55 226.49, -1.11 167.34, 0.36 0.56" stroke="#000000" stroke-width="1" fill="none"></path></g><g transform="translate(447.00636484082986 1138.968141104086) rotate(0 132 50)"><text x="132" y="18" font-family="Virgil, Segoe UI Emoji" font-size="20px" fill="#000000" text-anchor="middle" style="white-space: pre;" direction="ltr">MetaMask</text><text x="132" y="43" font-family="Virgil, Segoe UI Emoji" font-size="20px" fill="#000000" text-anchor="middle" style="white-space: pre;" direction="ltr"></text><text x="132" y="68" font-family="Virgil, Segoe UI Emoji" font-size="20px" fill="#000000" text-anchor="middle" style="white-space: pre;" direction="ltr">Internet Computer (Proxy </text><text x="132" y="93" font-family="Virgil, Segoe UI Emoji" font-size="20px" fill="#000000" text-anchor="middle" style="white-space: pre;" direction="ltr">Canister) config</text></g><g transform="translate(10 1151.2955376763734) rotate(0 197.5 88.5)"><text x="0" y="20.5" font-family="Virgil, Segoe UI Emoji" font-size="23.41139365527071px" fill="#000000" text-anchor="start" style="white-space: pre;" direction="ltr">We use MetaMask</text><text x="0" y="50" font-family="Virgil, Segoe UI Emoji" font-size="23.41139365527071px" fill="#000000" text-anchor="start" style="white-space: pre;" direction="ltr">with two network configurations</text><text x="0" y="79.5" font-family="Virgil, Segoe UI Emoji" font-size="23.41139365527071px" fill="#000000" text-anchor="start" style="white-space: pre;" direction="ltr"></text><text x="0" y="109" font-family="Virgil, Segoe UI Emoji" font-size="23.41139365527071px" fill="#000000" text-anchor="start" style="white-space: pre;" direction="ltr">- Ethereum network</text><text x="0" y="138.5" font-family="Virgil, Segoe UI Emoji" font-size="23.41139365527071px" fill="#000000" text-anchor="start" style="white-space: pre;" direction="ltr">- Internet Computer via personal </text><text x="0" y="168" font-family="Virgil, Segoe UI Emoji" font-size="23.41139365527071px" fill="#000000" text-anchor="start" style="white-space: pre;" direction="ltr">  proxy canister</text></g><g transform="translate(2342.1492482632207 560.1250734166846) rotate(0 91.5 12.5)"><text x="0" y="18" font-family="Virgil, Segoe UI Emoji" font-size="20px" fill="#000000" text-anchor="start" style="white-space: pre;" direction="ltr">Internet Computer</text></g><g stroke-linecap="round"><g transform="translate(613.9450302702736 939.2582820261781) rotate(0 420.5730825129202 -391.11819718348744)"><path d="M-0.72 0.72 C139.6 -129.61, 701.26 -650.58, 841.86 -781.01 M1.11 0.06 C141.26 -130.74, 700.59 -652.81, 840.84 -782.96" stroke="#000000" stroke-width="1" fill="none"></path></g><g transform="translate(613.9450302702736 939.2582820261781) rotate(0 420.5730825129202 -391.11819718348744)"><path d="M828.4 -756.48 C831.56 -762.57, 834.14 -771.11, 841.6 -782.3 M826.42 -757.12 C830.53 -765.11, 835.6 -771.42, 840.56 -783.36" stroke="#000000" stroke-width="1" fill="none"></path></g><g transform="translate(613.9450302702736 939.2582820261781) rotate(0 420.5730825129202 -391.11819718348744)"><path d="M814.42 -771.5 C821.83 -773.07, 828.54 -777.18, 841.6 -782.3 M812.43 -772.13 C820.84 -775.64, 830.07 -777.49, 840.56 -783.36" stroke="#000000" stroke-width="1" fill="none"></path></g></g><g stroke-linecap="round"><g transform="translate(741.1376530873637 1182.7108832111508) rotate(0 257.0491728715137 -142.12440375011363)"><path d="M0.47 -1.16 C85.71 -48.4, 427.24 -236.26, 512.6 -283.3 M-0.74 0.85 C84.77 -46.76, 428.86 -237.38, 514.84 -285.1" stroke="#000000" stroke-width="1" fill="none"></path></g><g transform="translate(741.1376530873637 1182.7108832111508) rotate(0 257.0491728715137 -142.12440375011363)"><path d="M493.23 -263.96 C503.98 -272.94, 511.64 -278.94, 515.72 -284.23 M495.91 -262.09 C499.73 -267.22, 503.45 -272.07, 514.86 -285.02" stroke="#000000" stroke-width="1" fill="none"></path></g><g transform="translate(741.1376530873637 1182.7108832111508) rotate(0 257.0491728715137 -142.12440375011363)"><path d="M483.28 -281.91 C498.01 -283.79, 509.63 -282.66, 515.72 -284.23 M485.96 -280.04 C491.65 -281.61, 497.37 -282.86, 514.86 -285.02" stroke="#000000" stroke-width="1" fill="none"></path></g></g><g stroke-linecap="round"><g transform="translate(1473.3641574595847 878.4736287418417) rotate(0 45.1523536523855 -17.339362876848327)"><path d="M-0.74 -0.62 C14.3 -6.57, 76.04 -28.8, 91.04 -34.56 M1.08 1.66 C15.96 -4.12, 75.44 -30.42, 90.55 -36.34" stroke="#000000" stroke-width="1" fill="none"></path></g><g transform="translate(1473.3641574595847 878.4736287418417) rotate(0 45.1523536523855 -17.339362876848327)"><path d="M67.48 -14.53 C77.51 -24.8, 84.51 -30.45, 91.28 -35.75 M68.7 -16.02 C76.24 -24.35, 83.96 -31.92, 90.53 -35.61" stroke="#000000" stroke-width="1" fill="none"></path></g><g transform="translate(1473.3641574595847 878.4736287418417) rotate(0 45.1523536523855 -17.339362876848327)"><path d="M59.54 -33.45 C72.65 -36.73, 82.57 -35.44, 91.28 -35.75 M60.76 -34.94 C71.08 -36.32, 81.73 -36.92, 90.53 -35.61" stroke="#000000" stroke-width="1" fill="none"></path></g></g><g stroke-linecap="round"><g transform="translate(810.9800243389149 499.3699813585662) rotate(0 580.3612585970727 97.62575687373123)"><path d="M1.14 -0.2 C103.07 -8.2, 418.03 -90.71, 611.25 -48.25 C804.47 -5.79, 1069.23 204.06, 1160.45 254.55 M0.28 -1.35 C102.05 -9.21, 416.79 -90.07, 610.1 -47.25 C803.41 -4.42, 1068.76 205.11, 1160.11 255.58" stroke="#000000" stroke-width="1" fill="none"></path></g><g transform="translate(810.9800243389149 499.3699813585662) rotate(0 580.3612585970727 97.62575687373123)"><path d="M1130.55 248.19 C1137.13 251.77, 1145.85 250.44, 1159.46 254.5 M1130.36 248.02 C1137.69 250.7, 1142.32 251.47, 1161.02 255.57" stroke="#000000" stroke-width="1" fill="none"></path></g><g transform="translate(810.9800243389149 499.3699813585662) rotate(0 580.3612585970727 97.62575687373123)"><path d="M1141.72 230.98 C1145.22 239.35, 1150.91 242.69, 1159.46 254.5 M1141.53 230.81 C1146.71 237, 1149.05 241.29, 1161.02 255.57" stroke="#000000" stroke-width="1" fill="none"></path></g></g><g stroke-linecap="round"><g transform="translate(2044.240430491614 740.1340626548193) rotate(0 -107.2599332851322 -220.02764475602277)"><path d="M-1.08 0.24 C-36.83 -72.86, -178.72 -365.3, -214.51 -438.69 M0.55 -0.69 C-35.29 -74.09, -178.83 -367.23, -215.07 -440.29" stroke="#000000" stroke-width="1" fill="none"></path></g><g transform="translate(2044.240430491614 740.1340626548193) rotate(0 -107.2599332851322 -220.02764475602277)"><path d="M-193.02 -418.3 C-198.17 -426.88, -207.02 -432.29, -215.96 -438.41 M-192.74 -420.04 C-199.19 -425.22, -206.71 -430.08, -215.16 -439.7" stroke="#000000" stroke-width="1" fill="none"></path></g><g transform="translate(2044.240430491614 740.1340626548193) rotate(0 -107.2599332851322 -220.02764475602277)"><path d="M-211.43 -409.23 C-211.09 -420.35, -214.47 -428.45, -215.96 -438.41 M-211.15 -410.98 C-212.51 -418.85, -214.86 -426.26, -215.16 -439.7" stroke="#000000" stroke-width="1" fill="none"></path></g></g><g transform="translate(1904.7691621639135 471.58606656279824) rotate(0 -0.6305075860213947 -0.261850145014364)" stroke="none"><path fill="#000000" d="M 2.12,-0.66 Q 2.12,-0.66 2.15,-0.13 2.18,0.40 1.96,0.88 1.74,1.36 1.32,1.69 0.91,2.02 0.38,2.12 -0.13,2.21 -0.64,2.05 -1.14,1.90 -1.52,1.52 -1.90,1.14 -2.05,0.64 -2.21,0.13 -2.12,-0.38 -2.02,-0.91 -1.69,-1.32 -1.36,-1.74 -0.88,-1.96 -0.39,-2.18 0.13,-2.15 0.66,-2.11 1.11,-1.84 1.57,-1.56 1.84,-1.11 L 2.12,-0.66 Z"></path></g><g transform="translate(1954.699850342165 434.74037087851536) rotate(0 110 25)"><text x="0" y="18" font-family="Virgil, Segoe UI Emoji" font-size="20px" fill="#000000" text-anchor="start" style="white-space: pre;" direction="ltr">Check if tx is included</text><text x="0" y="43" font-family="Virgil, Segoe UI Emoji" font-size="20px" fill="#000000" text-anchor="start" style="white-space: pre;" direction="ltr">using HTTPS outcalls</text></g><g stroke-linecap="round"><g transform="translate(1973.0638144596137 851.7204915552592) rotate(0 -99.21156360673592 -3.496372168980315)"><path d="M-0.13 -0.31 C-33.01 -1.22, -164.7 -4.01, -197.75 -4.94 M-1.66 -1.52 C-34.58 -2.81, -165.37 -6.16, -198.29 -6.68" stroke="#000000" stroke-width="1" fill="none"></path></g><g transform="translate(1973.0638144596137 851.7204915552592) rotate(0 -99.21156360673592 -3.496372168980315)"><path d="M-170.4 -15.04 C-175.94 -13.74, -184.74 -12.47, -197.22 -8.39 M-170.72 -16.79 C-175.04 -14.16, -181.15 -12.31, -197.79 -6.78" stroke="#000000" stroke-width="1" fill="none"></path></g><g transform="translate(1973.0638144596137 851.7204915552592) rotate(0 -99.21156360673592 -3.496372168980315)"><path d="M-170.84 5.47 C-176.35 1.5, -185.05 -2.49, -197.22 -8.39 M-171.16 3.73 C-175.47 2.2, -181.48 -0.11, -197.79 -6.78" stroke="#000000" stroke-width="1" fill="none"></path></g></g><g transform="translate(1822.6149007083034 865.6828141797758) rotate(0 54.999999999999886 12.5)"><text x="0" y="18" font-family="Virgil, Segoe UI Emoji" font-size="20px" fill="#000000" text-anchor="start" style="white-space: pre;" direction="ltr">mint ckETH</text></g><g transform="translate(1548.9492690559462 988.650522653248) rotate(0 0.00004999999998744897 0.00004999999998744897)" stroke="none"><path fill="#000000" d="M 1.57,-1.57 Q 1.57,-1.57 1.77,-1.27 1.98,-0.98 2.09,-0.64 2.20,-0.29 2.19,0.05 2.18,0.41 2.05,0.75 1.93,1.09 1.70,1.37 1.48,1.65 1.18,1.84 0.87,2.04 0.52,2.12 0.18,2.21 -0.17,2.18 -0.53,2.15 -0.86,2.01 -1.19,1.87 -1.46,1.63 -1.73,1.39 -1.90,1.07 -2.08,0.76 -2.15,0.41 -2.21,0.05 -2.17,-0.29 -2.12,-0.65 -1.96,-0.97 -1.80,-1.29 -1.54,-1.54 -1.29,-1.80 -0.97,-1.96 -0.65,-2.12 -0.29,-2.17 0.06,-2.21 0.41,-2.15 0.76,-2.08 1.07,-1.90 1.39,-1.73 1.63,-1.46 1.87,-1.19 2.01,-0.86 2.15,-0.53 2.18,-0.17 2.21,0.18 2.12,0.52 2.03,0.87 1.84,1.18 1.65,1.48 1.37,1.70 1.09,1.93 0.75,2.05 0.41,2.18 0.05,2.19 -0.30,2.20 -0.64,2.09 -0.98,1.98 -1.27,1.77 -1.57,1.56 -1.57,1.57 -1.57,1.57 -1.73,1.35 -1.90,1.14 -2.01,0.90 -2.12,0.66 -2.16,0.39 -2.21,0.13 -2.20,-0.13 -2.18,-0.40 -2.10,-0.65 -2.02,-0.91 -1.88,-1.14 -1.74,-1.36 -1.55,-1.55 -1.36,-1.74 -1.14,-1.88 -0.91,-2.02 -0.65,-2.10 -0.40,-2.18 -0.13,-2.20 0.13,-2.21 0.39,-2.16 0.66,-2.12 0.90,-2.01 1.14,-1.90 1.35,-1.73 1.57,-1.57 1.57,-1.57 L 1.57,-1.57 Z"></path></g><g transform="translate(1492.1626048812411 960.2253763691618) rotate(0 156.5 25)"><text x="0" y="18" font-family="Virgil, Segoe UI Emoji" font-size="20px" fill="#000000" text-anchor="start" style="white-space: pre;" direction="ltr">Translate erc20 calls on ETH </text><text x="0" y="43" font-family="Virgil, Segoe UI Emoji" font-size="20px" fill="#000000" text-anchor="start" style="white-space: pre;" direction="ltr">to DIP20/ICRC-1 calls on IC</text></g><g stroke-linecap="round"><g transform="translate(481.26908434676886 679.7500410558667) rotate(0 -3.546118025314513 77.08726736925098)"><path d="M0.41 1.08 C-0.62 26.7, -5.27 128.07, -6.66 153.57 M-0.84 0.61 C-1.97 25.86, -6.71 126.37, -7.5 151.64" stroke="#000000" stroke-width="1" fill="none"></path></g><g transform="translate(481.26908434676886 679.7500410558667) rotate(0 -3.546118025314513 77.08726736925098)"><path d="M-14.81 123.4 C-13.65 128.73, -10.4 139.2, -7.97 150.5 M-16.65 122.63 C-14.07 133.65, -9.23 145.76, -7.24 151.71" stroke="#000000" stroke-width="1" fill="none"></path></g><g transform="translate(481.26908434676886 679.7500410558667) rotate(0 -3.546118025314513 77.08726736925098)"><path d="M5.69 124.22 C1.51 129.41, -0.58 139.66, -7.97 150.5 M3.85 123.46 C-1.48 134.27, -4.57 146.07, -7.24 151.71" stroke="#000000" stroke-width="1" fill="none"></path></g></g><g stroke-linecap="round"><g transform="translate(1363.9556819840034 727.7364703157781) rotate(0 -0.4472333363537473 46.52174590325808)"><path d="M-0.98 0.96 C-1.19 16.05, -0.66 76.36, -0.43 91.68 M0.7 0.42 C0.23 16.13, -1.46 76.98, -1.6 92.62" stroke="#000000" stroke-width="1" fill="none"></path></g><g transform="translate(1363.9556819840034 727.7364703157781) rotate(0 -0.4472333363537473 46.52174590325808)"><path d="M-9.7 63.52 C-9.37 75.47, -3.73 87.17, -3.2 93.66 M-10.92 64.09 C-8.27 71.3, -6.68 79.8, -1.54 92.39" stroke="#000000" stroke-width="1" fill="none"></path></g><g transform="translate(1363.9556819840034 727.7364703157781) rotate(0 -0.4472333363537473 46.52174590325808)"><path d="M10.82 63.93 C3.6 75.56, 1.69 87.11, -3.2 93.66 M9.6 64.49 C6.8 71.55, 2.95 79.94, -1.54 92.39" stroke="#000000" stroke-width="1" fill="none"></path></g></g><g transform="translate(1035.3461947121211 736.9419353376696) rotate(0 136 25)"><text x="0" y="18" font-family="Virgil, Segoe UI Emoji" font-size="20px" fill="#000000" text-anchor="start" style="white-space: pre;" direction="ltr">Creates Proxy canister</text><text x="0" y="43" font-family="Virgil, Segoe UI Emoji" font-size="20px" fill="#000000" text-anchor="start" style="white-space: pre;" direction="ltr">for each Ethereum address</text></g><g stroke-linecap="round" transform="translate(1255.1432523478095 1073.8061208216855) rotate(0 104.52680580342246 87.78227242311107)"><path d="M0.1 -1.46 C61.61 -0.39, 122 0.71, 209.72 0.17 M209.8 1.67 C211.87 44.87, 212.45 94.73, 210.55 177.32 M207.99 176.05 C126.92 178.33, 43.06 175.09, -0.09 175.39 M-1.59 176.02 C0.73 131.1, -0.23 90.59, -0.44 -0.83" stroke="#000000" stroke-width="1.5" fill="none" stroke-dasharray="8 9"></path></g><g transform="translate(1263.670058151232 1136.5883932447964) rotate(0 96 25)"><text x="96" y="18" font-family="Virgil, Segoe UI Emoji" font-size="20px" fill="#000000" text-anchor="middle" style="white-space: pre;" direction="ltr">Proxy Canister Web</text><text x="96" y="43" font-family="Virgil, Segoe UI Emoji" font-size="20px" fill="#000000" text-anchor="middle" style="white-space: pre;" direction="ltr">UI</text></g><g transform="translate(53.03153467403149 247.95440630827727) rotate(0 415 44.5)"><text x="0" y="20.666666666666668" font-family="Virgil, Segoe UI Emoji" font-size="23.41139365527071px" fill="#000000" text-anchor="start" style="white-space: pre;" direction="ltr">Demo app leads us through the pocess of setting up a proxy canister,</text><text x="0" y="50.333333333333336" font-family="Virgil, Segoe UI Emoji" font-size="23.41139365527071px" fill="#000000" text-anchor="start" style="white-space: pre;" direction="ltr">configuring MetaMask and swapping testnet ETH on Goerli to ckETH on</text><text x="0" y="80" font-family="Virgil, Segoe UI Emoji" font-size="23.41139365527071px" fill="#000000" text-anchor="start" style="white-space: pre;" direction="ltr">the Internet Computer</text></g></svg>